<svg xmlns="http://www.w3.org/2000/svg" width="30" height="19"><path fill="#222" fill-rule="evenodd" d="M29.061 1.805c-4.511 0-8.408 2.579-10.199 6.289a6.214 6.214 0 013.167-.858c3.361 0 6.098 2.637 6.098 5.881s-2.737 5.881-6.098 5.881c-3.36 0-6.093-2.637-6.093-5.881 0-.116.004-.23.011-.345-.004-.035-.011-.07-.011-.107 0-6.986 5.887-12.668 13.125-12.668.522 0 .939.402.939.901 0 .505-.417.907-.939.907zm-15.936 0c-4.513 0-8.414 2.581-10.205 6.292a6.216 6.216 0 013.173-.861c3.36 0 6.093 2.637 6.093 5.881s-2.733 5.881-6.093 5.881S0 16.361 0 13.117c0-.116.004-.229.011-.343-.004-.036-.011-.071-.011-.109C0 5.679 5.887-.003 13.125-.003c.517 0 .939.402.939.901 0 .505-.422.907-.939.907z"/></svg>